<svg width="24" height="17" viewBox="0 0 24 17" fill="none" xmlns="http://www.w3.org/2000/svg">
<circle cx="6" cy="11" r="6" fill="#B9C5B9"/>
<circle cx="12" cy="11" r="6" fill="#DD8256"/>
<path d="M10.5109 2.86509C11.669 4.83102 10.8684 5.08439 11.2793 6.33562C10.3055 5.48731 9.53408 5.84254 8.5991 4.32619C7.91911 3.2234 8.28377 2.96681 7.57151 0.495994C8.77925 1.54807 9.7282 1.80047 10.5109 2.86509Z" fill="#0E3B33"/>
<path d="M14.1389 5.50955C12.7013 7.28137 12.1843 6.6197 11.1554 7.44175C11.6101 6.23296 11.0078 5.6342 12.1021 4.2285C12.898 3.20616 13.2658 3.45823 15.3322 1.92786C14.7682 3.427 14.8632 4.40433 14.1389 5.50955Z" fill="#0E3B33"/>
<circle cx="18" cy="11" r="6" fill="#0E3B33"/>
</svg>
