<svg width="104" height="23" viewBox="0 0 104 23" fill="none" xmlns="http://www.w3.org/2000/svg">
<path d="M9.76 8.752C9.78133 8.95467 9.71733 9.136 9.568 9.296C9.41867 9.456 9.232 9.536 9.008 9.536C8.79467 9.536 8.61333 9.46667 8.464 9.328C8.32533 9.17867 8.256 9.00267 8.256 8.8C8.256 8.672 8.26133 8.53333 8.272 8.384C8.29333 8.224 8.30933 8.06933 8.32 7.92C8.32 7.824 8.272 7.776 8.176 7.776H3.712C3.616 7.776 3.568 7.824 3.568 7.92V11.216C3.568 11.312 3.616 11.36 3.712 11.36H7.632C7.824 11.36 7.98933 11.4293 8.128 11.568C8.26667 11.7067 8.336 11.872 8.336 12.064C8.336 12.256 8.26667 12.4213 8.128 12.56C7.98933 12.688 7.824 12.752 7.632 12.752H3.712C3.616 12.752 3.568 12.8 3.568 12.896V16.88C3.568 16.9653 3.60533 17.008 3.68 17.008C3.82933 17.008 3.97333 17.0027 4.112 16.992C4.26133 16.9707 4.40533 16.9547 4.544 16.944C4.75733 16.9227 4.93867 16.9867 5.088 17.136C5.248 17.2747 5.328 17.4507 5.328 17.664C5.328 17.8773 5.248 18.0533 5.088 18.192C4.93867 18.3307 4.75733 18.3947 4.544 18.384C4.24533 18.352 3.97867 18.3253 3.744 18.304C3.52 18.2933 3.30133 18.288 3.088 18.288C2.88533 18.288 2.66667 18.2933 2.432 18.304C2.208 18.3253 1.94133 18.352 1.632 18.384C1.42933 18.3947 1.248 18.3307 1.088 18.192C0.938667 18.0533 0.864 17.8773 0.864 17.664C0.864 17.4507 0.938667 17.2747 1.088 17.136C1.248 16.9867 1.42933 16.9227 1.632 16.944L1.984 16.976H2.016C2.09067 16.976 2.128 16.9333 2.128 16.848V7.792C2.128 7.696 2.08533 7.648 2 7.648C1.936 7.648 1.872 7.65867 1.808 7.68C1.744 7.69067 1.67467 7.696 1.6 7.696C1.39733 7.696 1.22133 7.62667 1.072 7.488C0.933333 7.33867 0.864 7.16267 0.864 6.96C0.864 6.736 0.944 6.55467 1.104 6.416C1.27467 6.26667 1.472 6.20267 1.696 6.224C1.90933 6.256 2.128 6.288 2.352 6.32C2.576 6.34133 2.79467 6.352 3.008 6.352H8.576C8.864 6.352 9.11467 6.45333 9.328 6.656C9.54133 6.85867 9.65333 7.10933 9.664 7.408L9.76 8.752ZM14.3098 18.384C13.7018 18.384 13.1311 18.272 12.5978 18.048C12.0644 17.824 11.5951 17.5147 11.1898 17.12C10.7844 16.7253 10.4644 16.2667 10.2298 15.744C10.0058 15.2107 9.89375 14.6453 9.89375 14.048C9.89375 13.4507 10.0058 12.8907 10.2298 12.368C10.4644 11.8347 10.7844 11.3707 11.1898 10.976C11.5951 10.5813 12.0644 10.272 12.5978 10.048C13.1311 9.824 13.7018 9.712 14.3098 9.712C14.9178 9.712 15.4831 9.824 16.0058 10.048C16.5391 10.272 17.0084 10.5867 17.4138 10.992C17.8191 11.3867 18.1338 11.8453 18.3578 12.368C18.5924 12.8907 18.7098 13.4507 18.7098 14.048C18.7098 14.6453 18.5924 15.2053 18.3578 15.728C18.1338 16.2507 17.8191 16.7147 17.4138 17.12C17.0084 17.5147 16.5391 17.824 16.0058 18.048C15.4831 18.272 14.9178 18.384 14.3098 18.384ZM14.3098 17.056C14.8751 17.056 15.3871 16.9227 15.8458 16.656C16.3044 16.3893 16.6671 16.0267 16.9338 15.568C17.2004 15.1093 17.3338 14.6027 17.3338 14.048C17.3338 13.4933 17.1951 12.992 16.9178 12.544C16.6511 12.0853 16.2884 11.7227 15.8298 11.456C15.3818 11.1787 14.8751 11.04 14.3098 11.04C13.7338 11.04 13.2164 11.1733 12.7578 11.44C12.2991 11.7067 11.9364 12.0693 11.6698 12.528C11.4031 12.976 11.2698 13.4827 11.2698 14.048C11.2698 14.6027 11.4031 15.1093 11.6698 15.568C11.9364 16.0267 12.2991 16.3893 12.7578 16.656C13.2271 16.9227 13.7444 17.056 14.3098 17.056ZM24.7316 18.384C24.1236 18.384 23.553 18.272 23.0196 18.048C22.4863 17.824 22.017 17.5147 21.6116 17.12C21.2063 16.7253 20.8863 16.2667 20.6516 15.744C20.4276 15.2107 20.3156 14.6453 20.3156 14.048C20.3156 13.4507 20.4276 12.8907 20.6516 12.368C20.8863 11.8347 21.2063 11.3707 21.6116 10.976C22.017 10.5813 22.4863 10.272 23.0196 10.048C23.553 9.824 24.1236 9.712 24.7316 9.712C25.3396 9.712 25.905 9.824 26.4276 10.048C26.961 10.272 27.4303 10.5867 27.8356 10.992C28.241 11.3867 28.5556 11.8453 28.7796 12.368C29.0143 12.8907 29.1316 13.4507 29.1316 14.048C29.1316 14.6453 29.0143 15.2053 28.7796 15.728C28.5556 16.2507 28.241 16.7147 27.8356 17.12C27.4303 17.5147 26.961 17.824 26.4276 18.048C25.905 18.272 25.3396 18.384 24.7316 18.384ZM24.7316 17.056C25.297 17.056 25.809 16.9227 26.2676 16.656C26.7263 16.3893 27.089 16.0267 27.3556 15.568C27.6223 15.1093 27.7556 14.6027 27.7556 14.048C27.7556 13.4933 27.617 12.992 27.3396 12.544C27.073 12.0853 26.7103 11.7227 26.2516 11.456C25.8036 11.1787 25.297 11.04 24.7316 11.04C24.1556 11.04 23.6383 11.1733 23.1796 11.44C22.721 11.7067 22.3583 12.0693 22.0916 12.528C21.825 12.976 21.6916 13.4827 21.6916 14.048C21.6916 14.6027 21.825 15.1093 22.0916 15.568C22.3583 16.0267 22.721 16.3893 23.1796 16.656C23.649 16.9227 24.1663 17.056 24.7316 17.056ZM39.3135 16.96C39.4948 16.96 39.6495 17.0293 39.7775 17.168C39.9162 17.296 39.9855 17.4613 39.9855 17.664C39.9855 17.8773 39.9055 18.0533 39.7455 18.192C39.5962 18.3413 39.4148 18.3947 39.2015 18.352C38.7855 18.2773 38.4708 18.24 38.2575 18.24C38.0442 18.24 37.8468 18.176 37.6655 18.048C37.4948 17.9307 37.3668 17.776 37.2815 17.584C37.2495 17.488 37.1908 17.472 37.1055 17.536C36.7962 17.8027 36.4548 18.0053 36.0815 18.144C35.7188 18.2933 35.3348 18.368 34.9295 18.368C34.2682 18.368 33.6815 18.24 33.1695 17.984C32.6575 17.728 32.2255 17.392 31.8735 16.976C31.5215 16.56 31.2548 16.096 31.0735 15.584C30.8922 15.072 30.8015 14.56 30.8015 14.048C30.8015 13.5467 30.8815 13.0453 31.0415 12.544C31.2015 12.032 31.4415 11.5627 31.7615 11.136C32.0922 10.7093 32.5082 10.368 33.0095 10.112C33.5108 9.856 34.0975 9.728 34.7695 9.728C35.2068 9.728 35.6175 9.81867 36.0015 10C36.3855 10.1813 36.7268 10.416 37.0255 10.704C37.0575 10.736 37.0895 10.752 37.1215 10.752C37.1748 10.752 37.2015 10.7093 37.2015 10.624V7.504C37.2015 7.41867 37.1642 7.376 37.0895 7.376C36.9828 7.376 36.8762 7.38667 36.7695 7.408C36.6735 7.41867 36.5668 7.424 36.4495 7.424C36.2788 7.424 36.1295 7.36533 36.0015 7.248C35.8735 7.12 35.8095 6.96533 35.8095 6.784C35.8095 6.58133 35.8788 6.416 36.0175 6.288C36.1562 6.16 36.3268 6.10667 36.5295 6.128C36.6788 6.13867 36.8388 6.15467 37.0095 6.176C37.1908 6.18667 37.3668 6.19733 37.5375 6.208C37.8255 6.21867 38.0708 6.32533 38.2735 6.528C38.4868 6.73067 38.5935 6.976 38.5935 7.264V16.928C38.5935 17.0133 38.6362 17.056 38.7215 17.056C38.8282 17.056 38.9242 17.04 39.0095 17.008C39.1055 16.976 39.2068 16.96 39.3135 16.96ZM34.9135 17.008C35.8628 17.008 36.6042 16.6613 37.1375 15.968C37.1802 15.9147 37.2015 15.856 37.2015 15.792V12.304C37.2015 12.24 37.1802 12.1813 37.1375 12.128C36.8495 11.808 36.5082 11.552 36.1135 11.36C35.7188 11.168 35.3135 11.072 34.8975 11.072C34.3855 11.072 33.9268 11.2 33.5215 11.456C33.1268 11.7013 32.8122 12.048 32.5775 12.496C32.3535 12.944 32.2415 13.456 32.2415 14.032C32.2415 14.5973 32.3588 15.104 32.5935 15.552C32.8282 16 33.1482 16.3573 33.5535 16.624C33.9588 16.88 34.4122 17.008 34.9135 17.008ZM58.2288 8.752C58.2501 8.95467 58.1861 9.136 58.0368 9.296C57.8874 9.456 57.7008 9.536 57.4768 9.536C57.2634 9.536 57.0821 9.46667 56.9328 9.328C56.7941 9.17867 56.7248 9.00267 56.7248 8.8C56.7248 8.672 56.7301 8.53333 56.7408 8.384C56.7621 8.224 56.7781 8.06933 56.7888 7.92C56.7888 7.824 56.7408 7.776 56.6448 7.776H52.1808C52.0848 7.776 52.0368 7.824 52.0368 7.92V11.216C52.0368 11.312 52.0848 11.36 52.1808 11.36H56.1008C56.2928 11.36 56.4581 11.4293 56.5968 11.568C56.7354 11.7067 56.8048 11.872 56.8048 12.064C56.8048 12.256 56.7354 12.4213 56.5968 12.56C56.4581 12.688 56.2928 12.752 56.1008 12.752H52.1808C52.0848 12.752 52.0368 12.8 52.0368 12.896V16.88C52.0368 16.9653 52.0741 17.008 52.1488 17.008C52.2981 17.008 52.4421 17.0027 52.5807 16.992C52.7301 16.9707 52.8741 16.9547 53.0128 16.944C53.2261 16.9227 53.4074 16.9867 53.5568 17.136C53.7168 17.2747 53.7968 17.4507 53.7968 17.664C53.7968 17.8773 53.7168 18.0533 53.5568 18.192C53.4074 18.3307 53.2261 18.3947 53.0128 18.384C52.7141 18.352 52.4474 18.3253 52.2128 18.304C51.9888 18.2933 51.7701 18.288 51.5568 18.288C51.3541 18.288 51.1354 18.2933 50.9008 18.304C50.6768 18.3253 50.4101 18.352 50.1008 18.384C49.8981 18.3947 49.7168 18.3307 49.5568 18.192C49.4074 18.0533 49.3328 17.8773 49.3328 17.664C49.3328 17.4507 49.4074 17.2747 49.5568 17.136C49.7168 16.9867 49.8981 16.9227 50.1008 16.944L50.4528 16.976H50.4848C50.5594 16.976 50.5968 16.9333 50.5968 16.848V7.792C50.5968 7.696 50.5541 7.648 50.4688 7.648C50.4048 7.648 50.3408 7.65867 50.2768 7.68C50.2128 7.69067 50.1434 7.696 50.0688 7.696C49.8661 7.696 49.6901 7.62667 49.5408 7.488C49.4021 7.33867 49.3328 7.16267 49.3328 6.96C49.3328 6.736 49.4128 6.55467 49.5728 6.416C49.7434 6.26667 49.9408 6.20267 50.1648 6.224C50.3781 6.256 50.5968 6.288 50.8207 6.32C51.0448 6.34133 51.2634 6.352 51.4768 6.352H57.0448C57.3328 6.352 57.5834 6.45333 57.7968 6.656C58.0101 6.85867 58.1221 7.10933 58.1328 7.408L58.2288 8.752ZM62.1163 8.512C61.8283 8.512 61.5776 8.41067 61.3643 8.208C61.1616 7.99467 61.0603 7.744 61.0603 7.456C61.0603 7.15733 61.1616 6.90667 61.3643 6.704C61.5776 6.50133 61.8283 6.4 62.1163 6.4C62.4043 6.4 62.6496 6.50133 62.8523 6.704C63.0656 6.90667 63.1723 7.15733 63.1723 7.456C63.1723 7.744 63.0656 7.99467 62.8523 8.208C62.6496 8.41067 62.4043 8.512 62.1163 8.512ZM60.7403 18.384C60.5269 18.3947 60.3403 18.3307 60.1803 18.192C60.0309 18.0533 59.9563 17.8773 59.9563 17.664C59.9563 17.4507 60.0309 17.2747 60.1803 17.136C60.3403 16.9867 60.5269 16.9227 60.7403 16.944C60.9003 16.976 61.0763 16.992 61.2682 16.992H61.3003C61.3749 16.992 61.4123 16.9493 61.4123 16.864V11.232C61.4123 11.1467 61.3749 11.104 61.3003 11.104C61.1083 11.104 60.9216 11.12 60.7403 11.152C60.5269 11.1627 60.3403 11.0987 60.1803 10.96C60.0309 10.8213 59.9563 10.6453 59.9563 10.432C59.9563 10.2187 60.0363 10.0427 60.1963 9.904C60.3563 9.75467 60.5376 9.69067 60.7403 9.712C61.0283 9.73333 61.2309 9.75467 61.3483 9.776C61.4763 9.78667 61.5616 9.792 61.6043 9.792C61.6469 9.792 61.7003 9.792 61.7643 9.792C62.0523 9.792 62.2976 9.89867 62.5003 10.112C62.7136 10.3147 62.8203 10.56 62.8203 10.848V16.864C62.8203 16.9493 62.8576 16.992 62.9323 16.992C63.1349 16.992 63.3216 16.976 63.4923 16.944C63.7056 16.9227 63.8869 16.9867 64.0363 17.136C64.1856 17.2747 64.2603 17.4507 64.2603 17.664C64.2603 17.8773 64.1856 18.0533 64.0363 18.192C63.8869 18.3307 63.7056 18.3947 63.4923 18.384C63.2789 18.3627 63.0496 18.3413 62.8043 18.32C62.5696 18.2987 62.3403 18.288 62.1163 18.288C61.8923 18.288 61.6576 18.2987 61.4123 18.32C61.1776 18.3413 60.9536 18.3627 60.7403 18.384ZM74.443 17.072C74.635 17.0507 74.8003 17.104 74.939 17.232C75.0777 17.36 75.147 17.5253 75.147 17.728C75.147 17.92 75.0777 18.0747 74.939 18.192C74.8003 18.32 74.635 18.3787 74.443 18.368C74.1123 18.336 73.851 18.3147 73.659 18.304C73.4777 18.2933 73.3017 18.288 73.131 18.288C72.939 18.288 72.7523 18.2933 72.571 18.304C72.3897 18.3253 72.139 18.3467 71.819 18.368C71.627 18.3787 71.4617 18.32 71.323 18.192C71.1843 18.0747 71.115 17.92 71.115 17.728C71.115 17.5253 71.1843 17.36 71.323 17.232C71.4617 17.104 71.627 17.0507 71.819 17.072L72.283 17.104H72.315C72.3897 17.104 72.427 17.0613 72.427 16.976V12.64C72.427 12.1173 72.347 11.744 72.187 11.52C72.027 11.296 71.7657 11.184 71.403 11.184C70.539 11.184 69.5737 11.6693 68.507 12.64C68.4537 12.6933 68.427 12.7573 68.427 12.832V16.976C68.427 17.072 68.475 17.1147 68.571 17.104L69.035 17.072C69.227 17.0507 69.3923 17.104 69.531 17.232C69.6697 17.36 69.739 17.5253 69.739 17.728C69.739 17.92 69.6697 18.0747 69.531 18.192C69.3923 18.32 69.227 18.3787 69.035 18.368C68.7043 18.336 68.443 18.3147 68.251 18.304C68.0697 18.2933 67.8937 18.288 67.723 18.288C67.531 18.288 67.3443 18.2933 67.163 18.304C66.9817 18.3253 66.731 18.3467 66.411 18.368C66.219 18.3787 66.0537 18.32 65.915 18.192C65.7763 18.0747 65.707 17.92 65.707 17.728C65.707 17.5253 65.7763 17.36 65.915 17.232C66.0537 17.104 66.219 17.0507 66.411 17.072L66.891 17.104C66.987 17.104 67.035 17.0613 67.035 16.976V11.104C67.035 11.0187 66.9977 10.976 66.923 10.976C66.8163 10.976 66.715 10.9867 66.619 11.008C66.523 11.0187 66.4217 11.024 66.315 11.024C66.1443 11.024 65.995 10.96 65.867 10.832C65.739 10.704 65.675 10.5493 65.675 10.368C65.675 10.176 65.7443 10.016 65.883 9.888C66.0217 9.74933 66.187 9.69067 66.379 9.712C66.5283 9.72267 66.6883 9.73867 66.859 9.76C67.0297 9.77067 67.2003 9.78133 67.371 9.792C67.6697 9.80267 67.9203 9.91467 68.123 10.128C68.3257 10.3413 68.427 10.5867 68.427 10.864V11.024C68.427 11.088 68.443 11.1307 68.475 11.152C68.5177 11.1627 68.5603 11.1467 68.603 11.104C69.6377 10.176 70.635 9.712 71.595 9.712C73.0883 9.712 73.835 10.6933 73.835 12.656V16.976C73.835 17.072 73.883 17.1147 73.979 17.104L74.443 17.072ZM85.0791 16.96C85.2605 16.96 85.4151 17.0293 85.5431 17.168C85.6818 17.296 85.7511 17.4613 85.7511 17.664C85.7511 17.8773 85.6711 18.0533 85.5111 18.192C85.3618 18.3413 85.1805 18.3947 84.9671 18.352C84.5511 18.2773 84.2365 18.24 84.0231 18.24C83.8098 18.24 83.6125 18.176 83.4311 18.048C83.2605 17.9307 83.1325 17.776 83.0471 17.584C83.0151 17.488 82.9565 17.472 82.8711 17.536C82.5618 17.8027 82.2205 18.0053 81.8471 18.144C81.4845 18.2933 81.1005 18.368 80.6951 18.368C80.0338 18.368 79.4471 18.24 78.9351 17.984C78.4231 17.728 77.9911 17.392 77.6391 16.976C77.2871 16.56 77.0205 16.096 76.8391 15.584C76.6578 15.072 76.5671 14.56 76.5671 14.048C76.5671 13.5467 76.6471 13.0453 76.8071 12.544C76.9671 12.032 77.2071 11.5627 77.5271 11.136C77.8578 10.7093 78.2738 10.368 78.7751 10.112C79.2765 9.856 79.8631 9.728 80.5351 9.728C80.9725 9.728 81.3831 9.81867 81.7671 10C82.1511 10.1813 82.4925 10.416 82.7911 10.704C82.8231 10.736 82.8551 10.752 82.8871 10.752C82.9405 10.752 82.9671 10.7093 82.9671 10.624V7.504C82.9671 7.41867 82.9298 7.376 82.8551 7.376C82.7485 7.376 82.6418 7.38667 82.5351 7.408C82.4391 7.41867 82.3325 7.424 82.2151 7.424C82.0445 7.424 81.8951 7.36533 81.7671 7.248C81.6391 7.12 81.5751 6.96533 81.5751 6.784C81.5751 6.58133 81.6445 6.416 81.7831 6.288C81.9218 6.16 82.0925 6.10667 82.2951 6.128C82.4445 6.13867 82.6045 6.15467 82.7751 6.176C82.9565 6.18667 83.1325 6.19733 83.3031 6.208C83.5911 6.21867 83.8365 6.32533 84.0391 6.528C84.2525 6.73067 84.3591 6.976 84.3591 7.264V16.928C84.3591 17.0133 84.4018 17.056 84.4871 17.056C84.5938 17.056 84.6898 17.04 84.7751 17.008C84.8711 16.976 84.9725 16.96 85.0791 16.96ZM80.6791 17.008C81.6285 17.008 82.3698 16.6613 82.9031 15.968C82.9458 15.9147 82.9671 15.856 82.9671 15.792V12.304C82.9671 12.24 82.9458 12.1813 82.9031 12.128C82.6151 11.808 82.2738 11.552 81.8791 11.36C81.4845 11.168 81.0791 11.072 80.6631 11.072C80.1511 11.072 79.6925 11.2 79.2871 11.456C78.8925 11.7013 78.5778 12.048 78.3431 12.496C78.1191 12.944 78.0071 13.456 78.0071 14.032C78.0071 14.5973 78.1245 15.104 78.3591 15.552C78.5938 16 78.9138 16.3573 79.3191 16.624C79.7245 16.88 80.1778 17.008 80.6791 17.008ZM94.0584 14.672H88.5704C88.4637 14.672 88.421 14.7253 88.4424 14.832C88.613 15.4827 88.9544 16.016 89.4664 16.432C89.9784 16.8373 90.565 17.04 91.2264 17.04C92.0157 17.04 92.6984 16.7253 93.2744 16.096C93.4344 15.9147 93.6264 15.824 93.8504 15.824C93.989 15.824 94.117 15.8667 94.2344 15.952C94.437 16.0907 94.5384 16.2773 94.5384 16.512C94.5384 16.6613 94.4904 16.7947 94.3944 16.912C93.9997 17.3707 93.525 17.728 92.9704 17.984C92.4157 18.24 91.8344 18.368 91.2264 18.368C90.6397 18.368 90.0904 18.256 89.5784 18.032C89.077 17.808 88.629 17.4987 88.2344 17.104C87.8504 16.6987 87.5464 16.2347 87.3224 15.712C87.109 15.1893 87.0024 14.6347 87.0024 14.048C87.0024 13.2373 87.1784 12.5067 87.5304 11.856C87.893 11.1947 88.3837 10.672 89.0024 10.288C89.621 9.904 90.309 9.712 91.0664 9.712C92.1757 9.712 93.0877 10.0587 93.8024 10.752C94.517 11.4453 94.9384 12.3947 95.0664 13.6C95.0984 13.888 95.013 14.1387 94.8104 14.352C94.6184 14.5653 94.3677 14.672 94.0584 14.672ZM91.0664 10.976C90.3837 10.976 89.813 11.168 89.3544 11.552C88.8957 11.936 88.5917 12.4747 88.4424 13.168V13.2C88.4424 13.2853 88.485 13.328 88.5704 13.328H93.4824C93.589 13.328 93.6317 13.2693 93.6104 13.152C93.3224 11.7013 92.4744 10.976 91.0664 10.976ZM103.6 10.736C103.6 11.0027 103.504 11.2373 103.312 11.44C103.12 11.632 102.88 11.728 102.592 11.728C102.4 11.728 102.224 11.68 102.064 11.584C101.914 11.4773 101.792 11.3493 101.696 11.2C101.664 11.1253 101.605 11.0933 101.52 11.104C101.018 11.1787 100.538 11.4773 100.08 12C99.6211 12.512 99.2691 13.1573 99.0238 13.936C99.0024 13.9787 98.9918 14.0373 98.9918 14.112V16.992C98.9918 17.0773 99.0291 17.12 99.1038 17.12C99.2211 17.12 99.3278 17.1147 99.4238 17.104C99.5304 17.0827 99.6371 17.072 99.7438 17.072C99.9251 17.072 100.08 17.136 100.208 17.264C100.336 17.3813 100.4 17.536 100.4 17.728C100.4 17.92 100.325 18.08 100.176 18.208C100.037 18.336 99.8718 18.3947 99.6798 18.384C99.3491 18.352 99.0824 18.3253 98.8798 18.304C98.6878 18.2933 98.4958 18.288 98.3038 18.288C98.0798 18.288 97.8718 18.2933 97.6798 18.304C97.4878 18.3253 97.2371 18.352 96.9278 18.384C96.7358 18.3947 96.5651 18.336 96.4158 18.208C96.2771 18.08 96.2078 17.92 96.2078 17.728C96.2078 17.536 96.2718 17.3813 96.3997 17.264C96.5278 17.136 96.6824 17.072 96.8638 17.072C96.9491 17.072 97.0398 17.0773 97.1358 17.088C97.2424 17.0987 97.3491 17.1093 97.4557 17.12H97.4878C97.5624 17.12 97.5998 17.0773 97.5998 16.992V11.232C97.5998 11.1467 97.5624 11.104 97.4878 11.104C97.2958 11.104 97.1091 11.12 96.9278 11.152C96.7144 11.1627 96.5278 11.0987 96.3678 10.96C96.2184 10.8213 96.1438 10.6453 96.1438 10.432C96.1438 10.2187 96.2238 10.0427 96.3838 9.904C96.5438 9.76533 96.7251 9.70667 96.9278 9.728C97.1411 9.74933 97.3064 9.76533 97.4238 9.776C97.5518 9.78667 97.6744 9.792 97.7918 9.792C97.9198 9.792 98.0904 9.792 98.3038 9.792C98.4958 9.792 98.6558 9.86133 98.7838 10C98.9224 10.1387 98.9918 10.2987 98.9918 10.48V11.136C98.9918 11.2 99.0078 11.2373 99.0398 11.248C99.0824 11.2587 99.1251 11.2373 99.1678 11.184C99.8718 10.2773 100.736 9.76 101.76 9.632C101.834 9.62133 101.904 9.616 101.968 9.616C102.042 9.60533 102.117 9.6 102.192 9.6C102.597 9.6 102.933 9.696 103.2 9.888C103.466 10.08 103.6 10.3627 103.6 10.736Z" fill="#0E3B33"/>
<circle cx="14.9334" cy="13.8162" r="5.93336" fill="#B9C5B9"/>
<circle cx="24.0613" cy="13.8162" r="5.93336" fill="#DD8256"/>
<path d="M22.5109 5.27134C23.669 7.23727 22.8684 7.49064 23.2793 8.74187C22.3055 7.89356 21.5341 8.24879 20.5991 6.73244C19.9191 5.62965 20.2838 5.37306 19.5715 2.90224C20.7793 3.95432 21.7282 4.20672 22.5109 5.27134Z" fill="#0E3B33"/>
<path d="M26.1389 7.9158C24.7013 9.68762 24.1843 9.02595 23.1554 9.848C23.6101 8.63921 23.0078 8.04045 24.1021 6.63475C24.898 5.61241 25.2658 5.86448 27.3322 4.33411C26.7682 5.83325 26.8632 6.81058 26.1389 7.9158Z" fill="#0E3B33"/>
<circle cx="32.2771" cy="13.8162" r="5.93336" fill="#0E3B33"/>
</svg>
